<svg width="24" height="24" viewBox="0 0 24 24" fill="none" xmlns="http://www.w3.org/2000/svg">
<path fill-rule="evenodd" clip-rule="evenodd" d="M14.385 15.4459C13.0371 16.5229 11.3281 17.0428 9.60885 16.899C7.88962 16.7552 6.29072 15.9585 5.14051 14.6727C3.99031 13.3868 3.37614 11.7093 3.42412 9.98474C3.47211 8.26018 4.17862 6.61944 5.39854 5.39952C6.61846 4.17959 8.2592 3.47309 9.98376 3.4251C11.7083 3.37711 13.3858 3.99129 14.6717 5.14149C15.9576 6.29169 16.7542 7.8906 16.898 9.60983C17.0418 11.3291 16.5219 13.0381 15.445 14.3859L20.601 19.5409C20.6747 19.6096 20.7338 19.6924 20.7747 19.7844C20.8157 19.8764 20.8378 19.9757 20.8396 20.0764C20.8413 20.1771 20.8228 20.2772 20.7851 20.3705C20.7474 20.4639 20.6912 20.5488 20.62 20.62C20.5488 20.6912 20.464 20.7473 20.3706 20.7851C20.2772 20.8228 20.1771 20.8413 20.0764 20.8395C19.9757 20.8378 19.8764 20.8157 19.7844 20.7747C19.6924 20.7337 19.6096 20.6746 19.541 20.6009L14.385 15.4459ZM6.45897 13.8839C5.72501 13.1499 5.22512 12.2148 5.02248 11.1967C4.81984 10.1787 4.92354 9.12338 5.32048 8.16424C5.71742 7.20511 6.38977 6.38516 7.25258 5.80804C8.11538 5.23092 9.12991 4.92252 10.1679 4.92183C11.206 4.92113 12.2209 5.22816 13.0845 5.80412C13.9481 6.38008 14.6215 7.19911 15.0198 8.15771C15.418 9.11632 15.5231 10.1715 15.3218 11.1898C15.1206 12.2081 14.6219 13.1439 13.889 13.8789L13.884 13.8839L13.879 13.8879C12.8941 14.8706 11.5594 15.4221 10.1681 15.4213C8.77688 15.4206 7.44281 14.8676 6.45897 13.8839Z" fill="white"/>
</svg>
